Coordinates
version=1
nRows=8
nColumns=40
inDegrees=yes

Units are S.I. units (second, meters, Newtons, ...)
If the header above contains a line with 'inDegrees', this indicates whether rotational values are in degrees (yes) or radians (no).

endheader
time	pelvis_tilt	pelvis_list	pelvis_rotation	pelvis_tx	pelvis_ty	pelvis_tz	hip_flexion_r	hip_adduction_r	hip_rotation_r	knee_angle_r	knee_angle_r_beta	ankle_angle_r	subtalar_angle_r	mtp_angle_r	hip_flexion_l	hip_adduction_l	hip_rotation_l	knee_angle_l	knee_angle_l_beta	ankle_angle_l	subtalar_angle_l	mtp_angle_l	lumbar_extension	lumbar_bending	lumbar_rotation	arm_flex_r	arm_add_r	arm_rot_r	elbow_flex_r	pro_sup_r	wrist_flex_r	wrist_dev_r	arm_flex_l	arm_add_l	arm_rot_l	elbow_flex_l	pro_sup_l	wrist_flex_l	wrist_dev_l
      1.61500000	    -15.29812150	     -2.13502185	     -1.83079185	      0.15374150	      0.50184227	     -1.19919257	     94.05459103	    -46.66528120	     12.66316466	    109.28306080	      1.90734923	     30.99431619	     16.00577278	      0.00000000	    102.02582441	    -49.41619241	     20.37643826	    110.64668906	      1.93114903	     29.97163396	     27.16680773	      0.00000000	    -18.25536515	      2.29835712	     -4.05460604	     44.99933854	    -14.99999977	     44.99933854	     75.00017585	     45.00000026	      0.00000000	      0.00000000	     44.99933854	    -14.99999977	     44.99933854	     75.00017585	     45.00000026	      0.00000000	      0.00000000
      1.62000000	    -15.17978774	     -2.08674265	     -1.80341279	      0.15380696	      0.50068114	     -1.19904211	     94.23600926	    -46.73396157	     12.94407404	    109.49259045	      1.91100621	     31.08010922	     16.12320447	      0.00000000	    102.07971825	    -49.43757513	     20.51418255	    110.80559394	      1.93392244	     30.03909523	     27.32838768	      0.00000000	    -18.49663313	      2.24634871	     -4.02744861	     44.99936734	    -14.99999979	     44.99936734	     75.00017585	     45.00000026	      0.00000000	      0.00000000	     44.99936734	    -14.99999979	     44.99936734	     75.00017585	     45.00000026	      0.00000000	      0.00000000
      1.62500000	    -15.26264572	     -2.24345961	     -1.81363444	      0.15383027	      0.49888841	     -1.19902592	     94.41130806	    -46.73420182	     12.92732605	    109.71590482	      1.91490378	     31.14878762	     16.02984491	      0.00000000	    102.75573865	    -49.42399812	     21.10735519	    111.03094847	      1.93785562	     30.03891269	     27.38403612	      0.00000000	    -18.45916185	      2.39417750	     -4.10671157	     44.99940098	    -14.99999980	     44.99940098	     75.00017585	     45.00000026	      0.00000000	      0.00000000	     44.99940098	    -14.99999980	     44.99940098	     75.00017585	     45.00000026	      0.00000000	      0.00000000
      1.63000000	    -15.04434684	     -2.22009156	     -1.76179062	      0.15394496	      0.49810663	     -1.19894400	     94.40284558	    -46.85269609	     13.12258170	    109.89262202	      1.91798808	     31.27914224	     16.15018216	      0.00000000	    102.65991406	    -49.43900698	     21.21835843	    111.16222809	      1.94014688	     30.17195248	     27.56795078	      0.00000000	    -18.84275199	      2.38588629	     -4.07519763	     44.99943157	    -14.99999982	     44.99943157	     75.00017585	     45.00000026	      0.00000000	      0.00000000	     44.99943157	    -14.99999982	     44.99943157	     75.00017585	     45.00000026	      0.00000000	      0.00000000
      1.63500000	    -15.11216431	     -2.31061248	     -1.77903717	      0.15393279	      0.49639833	     -1.19882119	     94.64225059	    -46.83985384	     13.21374803	    110.12289259	      1.92200706	     31.36239295	     16.17765693	      0.00000000	    103.21652717	    -49.42779752	     21.69931453	    111.37018828	      1.94377647	     30.15146354	     27.58674015	      0.00000000	    -18.83434174	      2.45366895	     -4.12145455	     44.99946113	    -14.99999984	     44.99946113	     75.00017585	     45.00000026	      0.00000000	      0.00000000	     44.99946113	    -14.99999984	     44.99946113	     75.00017585	     45.00000026	      0.00000000	      0.00000000
      1.64000000	    -14.97931984	     -2.32844623	     -1.74290149	      0.15405592	      0.49532123	     -1.19876262	     94.70226468	    -46.93494220	     13.37398750	    110.31308023	      1.92532646	     31.48751008	     16.30002705	      0.00000000	    103.33584539	    -49.43378335	     21.92806662	    111.53965353	      1.94673420	     30.21618742	     27.68911140	      0.00000000	    -19.08730219	      2.49261225	     -4.11150970	     44.99948831	    -14.99999985	     44.99948831	     75.00017585	     45.00000026	      0.00000000	      0.00000000	     44.99948831	    -14.99999985	     44.99948831	     75.00017585	     45.00000026	      0.00000000	      0.00000000
      1.64500000	    -14.91827620	     -2.36325139	     -1.73769410	      0.15411629	      0.49405152	     -1.19863830	     94.83216653	    -46.97163565	     13.51612941	    110.51104491	      1.92878159	     31.58504065	     16.36647406	      0.00000000	    103.58585257	    -49.43640765	     22.23520356	    111.71001804	      1.94970762	     30.26443588	     27.76959491	      0.00000000	    -19.24830722	      2.51282472	     -4.11680441	     44.99951410	    -14.99999986	     44.99951410	     75.00017585	     45.00000026	      0.00000000	      0.00000000	     44.99951410	    -14.99999986	     44.99951410	     75.00017585	     45.00000026	      0.00000000	      0.00000000
      1.65000000	    -14.81693524	     -2.37491534	     -1.72881864	      0.15416436	      0.49294948	     -1.19850367	     94.93615900	    -47.01019286	     13.68002015	    110.70981253	      1.93225074	     31.68272842	     16.41167168	      0.00000000	    103.72547004	    -49.44680320	     22.48030633	    111.86025297	      1.95232972	     30.35748115	     27.89436075	      0.00000000	    -19.47084714	      2.50528012	     -4.11465452	     44.99953818	    -14.99999987	     44.99953818	     75.00017585	     45.00000026	      0.00000000	      0.00000000	     44.99953818	    -14.99999987	     44.99953818	     75.00017585	     45.00000026	      0.00000000	      0.00000000
